PathFileType	4	(X/Y/Z)	S:\OneDrive - The University of Tokyo\ìåëÂéˆã∆\ÉoÉCÉÅÉJ\ë™íË\hirabayashi_2\Trimmed\Trimmed_BarR40kg1.trc
DataRate	CameraRate	NumFrames	NumMarkers	Units	OrigDataRate	OrigDataStartFrame	OrigNumFrames
200.00	200.00	       17	12	mm	200.00	37	       293
Frame#	Time	BarR0			BarR50			BarR100			BarR130			BarR180			BarR230			BarL0			BarL50			BarL100			BarL130			BarL180			BarL230			
		X1	Y1	Z1	X2	Y2	Z2	X3	Y3	Z3	X4	Y4	Z4	X5	Y5	Z5	X6	Y6	Z6	X7	Y7	Z7	X8	Y8	Z8	X9	Y9	Z9	X10	Y10	Z10	X11	Y11	Z11	X12	Y12	Z12	

37	0.180	-576.48877	2754.28857	1664.19116	-603.62195	2305.09766	1653.45044	-637.41479	1851.40051	1646.82068	-660.78998	1349.63477	1646.72937	-689.73199	903.03021	1653.55444	-713.84320	455.32416	1663.99805	-1113.52344	2808.17432	1664.69482	-1140.71118	2356.47607	1667.86707	-1171.19934	1906.05017	1668.76001	-1198.97632	1404.28784	1669.15552	-1226.76086	952.64240	1668.32007	-1244.52905	506.40082	1667.63721	
38	0.185	-576.48596	2754.30542	1664.18530	-603.63757	2305.05859	1653.42468	-637.41577	1851.39294	1646.78735	-660.78448	1349.65027	1646.72217	-689.72913	903.01410	1653.54871	-713.84003	455.35046	1663.99756	-1113.53259	2808.14136	1664.68335	-1140.70569	2356.46924	1667.87476	-1171.19727	1906.03577	1668.75000	-1198.97974	1404.24792	1669.13367	-1226.74646	952.65167	1668.31506	-1244.51672	506.40955	1667.65576	
39	0.190	-576.50519	2754.33081	1664.19287	-603.63947	2305.06104	1653.44556	-637.37708	1851.39990	1646.80652	-660.79517	1349.64697	1646.73071	-689.73596	903.04095	1653.56116	-713.83002	455.32733	1663.98792	-1113.56335	2808.14868	1664.69275	-1140.70862	2356.47510	1667.85266	-1171.17761	1906.06360	1668.76733	-1198.96814	1404.27234	1669.14661	-1226.73523	952.66614	1668.30872	-1244.52600	506.40393	1667.65283	
40	0.195	-576.48230	2754.31445	1664.19800	-603.62897	2305.05371	1653.44446	-637.41003	1851.36340	1646.81860	-660.76526	1349.60400	1646.73071	-689.72937	903.02484	1653.56152	-713.85254	455.33194	1663.98962	-1113.50769	2808.15015	1664.68213	-1140.69897	2356.48193	1667.86633	-1171.18994	1906.04614	1668.75635	-1198.97253	1404.24353	1669.15002	-1226.75757	952.62726	1668.31140	-1244.52905	506.40509	1667.64001	
41	0.200	-576.50647	2754.29663	1664.18469	-603.61188	2305.08374	1653.44043	-637.40942	1851.38342	1646.81555	-660.77264	1349.63892	1646.73865	-689.74402	903.02698	1653.55383	-713.83081	455.34030	1664.00537	-1113.55212	2808.15625	1664.69531	-1140.70410	2356.49048	1667.87756	-1171.18518	1906.05298	1668.76233	-1198.98059	1404.25818	1669.12781	-1226.75659	952.64197	1668.32043	-1244.53137	506.40628	1667.65186	
42	0.205	-576.48737	2754.29028	1664.20117	-603.61469	2305.08057	1653.44214	-637.41101	1851.40759	1646.80151	-660.77118	1349.64319	1646.73145	-689.71436	903.00885	1653.75818	-713.83337	455.34442	1664.00037	-1113.54138	2808.21680	1664.69128	-1140.69702	2356.48828	1667.89758	-1171.19434	1906.06250	1668.76038	-1198.96204	1404.31433	1669.17920	-1226.75623	952.64960	1668.30774	-1244.50415	506.41150	1667.65869	
43	0.210	-576.49835	2754.30713	1664.18628	-603.63702	2305.08643	1653.45642	-637.41821	1851.41528	1646.80725	-660.80072	1349.63586	1646.71899	-689.72552	903.03033	1653.56445	-713.83356	455.34830	1663.98682	-1113.55762	2808.16992	1664.68652	-1140.70813	2356.47925	1667.88245	-1171.18347	1906.04871	1668.77100	-1198.94946	1404.28992	1669.16956	-1226.75439	952.64722	1668.32202	-1244.50879	506.39172	1667.63818	
44	0.215	-576.49219	2754.30029	1664.19751	-603.61792	2305.08618	1653.44128	-637.40314	1851.42053	1646.82043	-660.78680	1349.64954	1646.72839	-689.73120	903.01459	1653.54407	-713.83960	455.33368	1663.98901	-1113.50208	2808.14746	1664.67834	-1140.70825	2356.50708	1667.86829	-1171.17578	1906.05396	1668.76062	-1198.97144	1404.28052	1669.14941	-1226.74597	952.64209	1668.31628	-1244.53394	506.41678	1667.65112	
45	0.220	-576.46997	2754.30762	1664.20813	-603.62231	2305.07813	1653.44421	-637.39880	1851.41589	1646.79224	-660.78107	1349.63025	1646.72961	-689.72089	903.02429	1653.75940	-713.83594	455.36511	1663.98901	-1113.55151	2808.18433	1664.68176	-1140.70496	2356.49121	1667.86560	-1171.16968	1906.04028	1668.76392	-1198.96277	1404.26465	1669.17334	-1226.73291	952.66138	1668.31299	-1244.51697	506.39603	1667.63684	
46	0.225	-576.47620	2754.30640	1664.19641	-603.60791	2305.06519	1653.45496	-637.41730	1851.36877	1646.81042	-660.76758	1349.62463	1646.74182	-689.71692	902.99939	1653.75745	-713.82867	455.32672	1663.99744	-1113.55798	2808.15918	1664.69312	-1140.69458	2356.48071	1667.87268	-1171.19885	1906.06079	1668.76746	-1198.95972	1404.28101	1669.18811	-1226.75439	952.65155	1668.32922	-1244.52661	506.40674	1667.64294	
47	0.230	-576.49188	2754.30518	1664.19165	-603.61737	2305.08398	1653.44238	-637.40131	1851.41162	1646.81726	-660.78436	1349.61450	1646.73499	-689.72974	903.02100	1653.55640	-713.83398	455.34216	1664.00146	-1113.54150	2808.17065	1664.69495	-1140.72046	2356.48926	1667.88147	-1171.20007	1906.05164	1668.76257	-1198.97681	1404.24878	1669.14185	-1226.75378	952.64783	1668.32776	-1244.51563	506.38922	1667.63232	
48	0.235	-576.48859	2754.31152	1664.19385	-603.62592	2305.06519	1653.45142	-637.39667	1851.41455	1646.79675	-660.74548	1349.64819	1646.73279	-689.72650	903.00970	1653.56421	-713.85345	455.36407	1663.98743	-1113.57690	2808.17285	1664.69104	-1140.70544	2356.48853	1667.87427	-1171.19165	1906.07166	1668.75513	-1198.97546	1404.26636	1669.14880	-1226.74573	952.64258	1668.32288	-1244.53137	506.41895	1667.64832	
49	0.240	-576.48120	2754.29541	1664.18579	-603.60712	2305.07202	1653.46082	-637.39557	1851.36975	1646.81970	-660.76996	1349.63196	1646.73755	-689.73804	903.03278	1653.54565	-713.84900	455.35535	1663.99658	-1113.52954	2808.17358	1664.69055	-1140.69751	2356.49292	1667.87939	-1171.18176	1906.05212	1668.76221	-1198.98340	1404.26697	1669.15234	-1226.75049	952.64301	1668.31738	-1244.52551	506.39252	1667.64307	
50	0.245	-576.48944	2754.30762	1664.18518	-603.62311	2305.04614	1653.43262	-637.39807	1851.41541	1646.82837	-660.74969	1349.65918	1646.72668	-689.72662	903.02173	1653.54089	-713.84161	455.34546	1663.98840	-1113.52979	2808.14429	1664.69165	-1140.70703	2356.47974	1667.85803	-1171.17957	1906.04504	1668.77808	-1198.96826	1404.26746	1669.14343	-1226.73926	952.63495	1668.30200	-1244.53345	506.39969	1667.64270	
51	0.250	-576.50177	2754.32910	1664.18860	-603.62158	2305.07397	1653.44275	-637.41040	1851.36523	1646.80359	-660.76758	1349.63953	1646.73438	-689.73352	902.99683	1653.56543	-713.83313	455.35239	1663.98853	-1113.54114	2808.13647	1664.68347	-1140.70850	2356.51001	1667.86621	-1171.19800	1906.06458	1668.77832	-1198.95532	1404.28589	1669.19165	-1226.75464	952.64557	1668.32971	-1244.53125	506.41769	1667.63757	
52	0.255	-576.47266	2754.29663	1664.18188	-603.63489	2305.05957	1653.46167	-637.40869	1851.40747	1646.82153	-660.78259	1349.64111	1646.73572	-689.74371	902.98633	1653.55200	-713.83917	455.33942	1664.00122	-1113.57068	2808.17358	1664.70007	-1140.70984	2356.47705	1667.87598	-1171.18201	1906.05762	1668.76257	-1198.97083	1404.26953	1669.15747	-1226.75916	952.63745	1668.31628	-1244.52563	506.40405	1667.66541	
53	0.260	-576.49872	2754.32886	1664.18604	-603.64453	2305.04980	1653.44043	-637.41296	1851.39600	1646.80652	-660.78796	1349.63232	1646.73340	-689.72375	902.99445	1653.56616	-713.85449	455.33173	1663.99768	-1113.55042	2808.16040	1664.69275	-1140.69287	2356.47852	1667.87610	-1171.17773	1906.04639	1668.76550	-1198.97144	1404.27100	1669.15271	-1226.74377	952.65521	1668.32935	-1244.55273	506.40854	1667.65808	
